<?xml version="1.0" encoding="UTF-8"?>
<!DOCTYPE svg PUBLIC "-//W3C//DTD SVG 1.0//EN" "http://www.w3.org/TR/2001/REC-SVG-20010904/DTD/svg10.dtd">
<!-- Creator: CorelDRAW -->
<svg xmlns="http://www.w3.org/2000/svg" xml:space="preserve" width="0.702508in" height="0.204843in" version="1.0" shape-rendering="geometricPrecision" text-rendering="geometricPrecision" image-rendering="optimizeQuality" fill-rule="evenodd" clip-rule="evenodd"
viewBox="0 0 179.85 52.44"
 xmlns:xlink="http://www.w3.org/1999/xlink"
 xmlns:xodm="http://www.corel.com/coreldraw/odm/2003">
 <g id="Layer_x0020_1">
  <metadata id="CorelCorpID_0Corel-Layer"/>
  <path fill="white" fill-rule="nonzero" d="M62.13 33.99c-0.54,0.14 -0.98,0.24 -1.53,0.38 0.12,-0.32 0.19,-0.48 0.25,-0.65 -0.04,-0.03 -0.08,-0.06 -0.12,-0.09 -0.39,0.44 -0.76,0.9 -1.17,1.33 -0.24,0.25 -0.52,0.57 -0.83,0.64 -0.7,0.16 -1.42,0.21 -2.14,0.24 -1.89,0.1 -3.79,0.16 -5.68,0.26 -1.53,0.08 -3.04,0.19 -4.54,-0.33 -0.63,-0.22 -1.36,-0.21 -2.04,-0.19 -0.85,0.02 -1.4,0.52 -1.47,1.37 -0.06,0.73 0.08,1.47 0.12,2.2 0.05,0.79 0.28,1.59 -0.07,2.37 -0.08,0.17 -0.01,0.41 -0.01,0.7 0.67,-0.71 0.27,-1.48 0.37,-2.18 0.28,0.71 0.44,1.4 0,2.11 -0.47,0.77 -0.5,1.58 -0.35,2.48 0.13,0.76 0.03,1.57 0.03,2.35 0.04,-0.02 0.08,-0.03 0.13,-0.04 0.1,0.16 0.26,0.32 0.28,0.49 0.05,0.6 0.08,0.64 0.7,0.57 0.15,-0.02 0.3,-0.02 0.45,-0.03 -0.75,-1.33 -0.77,-2.7 -0.42,-4.1 0.07,-0.03 0.14,-0.05 0.22,-0.08 0.21,0.32 0.48,0.62 0.63,0.97 0.2,0.48 0.3,0.99 0.46,1.49 0.11,0.32 0.11,0.72 0.55,0.83 0.03,0.01 0.07,0.04 0.07,0.06 0.19,0.87 0.78,0.44 1.33,0.43 -1.21,-1 -1.51,-2.3 -1.63,-3.66 0.08,-0.06 0.1,-0.08 0.1,-0.07 0.1,0.08 0.19,0.17 0.32,0.28 0.03,-0.07 0.07,-0.12 0.08,-0.17 0.07,-0.19 0.13,-0.38 0.19,-0.57 0.12,0.13 0.23,0.27 0.36,0.39 0.04,0.04 0.11,0.06 0.3,0.15 -0.34,-0.86 0.63,-0.93 0.68,-1.61 0.2,0.09 0.35,0.14 0.48,0.23 0.84,0.61 1.76,0.75 2.78,0.61 0.85,-0.11 1.71,-0.14 2.56,-0.19 0.62,-0.04 0.94,0.33 0.91,0.96 -0.05,0.85 -0.11,1.7 -0.1,2.55 0.01,0.41 0.12,0.83 0.29,1.21 0.19,0.43 0.61,0.22 0.96,0.27 -0.21,-0.55 -0.39,-1.02 -0.56,-1.5 -0.04,-0.11 -0.06,-0.24 -0.03,-0.35 0.21,-0.73 0.44,-1.45 0.75,-2.19 0.08,0.67 0.15,1.34 0.24,2.01 0.06,0.44 -0.07,0.95 0.42,1.27 0.08,0.05 0.04,0.28 0.06,0.46 0.32,0 0.65,0 1.06,0 -0.11,-0.19 -0.16,-0.35 -0.27,-0.46 -0.79,-0.82 -0.75,-1.82 -0.61,-2.84 0.01,-0.08 0.04,-0.16 0.04,-0.25 0.04,-0.49 0.19,-0.85 0.73,-1.04 0.3,-0.1 0.58,-0.42 0.75,-0.71 0.34,-0.59 0.57,-1.24 0.9,-1.85 0.28,-0.53 0.62,-1.03 0.94,-1.54 0.06,-0.09 0.18,-0.18 0.28,-0.18 0.81,-0.03 1.62,-0.05 2.43,-0.04 0.44,0.01 0.76,-0.17 0.96,-0.52 0.2,-0.34 -0.15,-0.49 -0.31,-0.71 -0.42,-0.57 -1.07,-0.97 -1.24,-1.74 -0.05,-0.21 -0.35,-0.38 -0.55,-0.55 -0.44,-0.35 -0.43,-0.56 0.03,-0.85 0.15,-0.09 0.28,-0.23 0.49,-0.41z"/>
  <path fill="#373435" fill-rule="nonzero" d="M50.45 45.27c-0.1,0.05 -0.18,0.07 -0.19,0.1 -0.17,0.91 -0.34,1.83 -0.5,2.74 -0.05,0.25 0.08,0.65 -0.38,0.54 0.03,-0.94 0.23,-1.89 0.05,-2.76 -0.29,-1.39 -0.3,-2.78 -0.36,-4.17 -0.01,-0.28 -0.06,-0.46 -0.38,-0.57 -0.23,-0.08 -0.41,-0.34 -0.61,-0.52 0.02,-0.06 0.05,-0.12 0.07,-0.19 0.3,0.06 0.6,0.13 0.93,0.2 0.41,-0.51 0.76,-0.53 1.3,-0.07 0.35,-0.08 0.66,-0.15 0.96,-0.22 0.04,0.07 0.08,0.14 0.12,0.21 -0.27,0.26 -0.54,0.52 -0.85,0.82 0.08,0.33 0.38,0.39 0.7,0.36 0.61,-0.05 1.21,-0.11 1.81,-0.22 0.58,-0.11 1.02,0.05 1.2,0.61 0.23,0.69 0.37,1.41 0.43,2.16 -0.06,-0.14 -0.12,-0.28 -0.19,-0.42 -0.02,0 -0.04,0.01 -0.07,0.01 0.16,0.77 0.35,1.53 0.46,2.3 0.12,0.79 0.16,1.6 0.23,2.38 -0.52,0.2 -0.51,-0.09 -0.47,-0.39 0.18,-1.41 -0.55,-2.45 -1.4,-3.63 0,0.25 -0.03,0.35 0.01,0.41 0.54,1.14 -0.09,2.19 -0.24,3.27 -0.05,0.32 -0.12,0.31 -0.48,0.27 0.11,-0.56 0.26,-1.11 0.31,-1.68 0.03,-0.32 -0.13,-0.64 -0.16,-0.97 -0.07,-0.68 -0.61,-0.7 -1.08,-0.73 -0.14,-0.01 -0.41,0.32 -0.45,0.52 -0.17,0.9 -0.28,1.81 -0.43,2.71 -0.03,0.16 -0.13,0.3 -0.2,0.45 -0.05,-0.02 -0.09,-0.04 -0.14,-0.06 0,-1.13 0,-2.26 0,-3.44z"/>
  <path fill="none" fill-rule="nonzero" d="M50.45 45.27c-0.1,0.05 -0.18,0.07 -0.19,0.1 -0.17,0.91 -0.34,1.83 -0.5,2.74 -0.05,0.25 0.08,0.65 -0.38,0.54 0.03,-0.94 0.23,-1.89 0.05,-2.76 -0.29,-1.39 -0.3,-2.78 -0.36,-4.17 -0.01,-0.28 -0.06,-0.46 -0.38,-0.57 -0.23,-0.08 -0.41,-0.34 -0.61,-0.52 0.02,-0.06 0.05,-0.12 0.07,-0.19 0.3,0.06 0.6,0.13 0.93,0.2 0.41,-0.51 0.76,-0.53 1.3,-0.07 0.35,-0.08 0.66,-0.15 0.96,-0.22 0.04,0.07 0.08,0.14 0.12,0.21 -0.27,0.26 -0.54,0.52 -0.85,0.82 0.08,0.33 0.38,0.39 0.7,0.36 0.61,-0.05 1.21,-0.11 1.81,-0.22 0.58,-0.11 1.02,0.05 1.2,0.61 0.23,0.69 0.37,1.41 0.43,2.16 -0.06,-0.14 -0.12,-0.28 -0.19,-0.42 -0.02,0 -0.04,0.01 -0.07,0.01 0.16,0.77 0.35,1.53 0.46,2.3 0.12,0.79 0.16,1.6 0.23,2.38 -0.52,0.2 -0.51,-0.09 -0.47,-0.39 0.18,-1.41 -0.55,-2.45 -1.4,-3.63 0,0.25 -0.03,0.35 0.01,0.41 0.54,1.14 -0.09,2.19 -0.24,3.27 -0.05,0.32 -0.12,0.31 -0.48,0.27 0.11,-0.56 0.26,-1.11 0.31,-1.68 0.03,-0.32 -0.13,-0.64 -0.16,-0.97 -0.07,-0.68 -0.61,-0.7 -1.08,-0.73 -0.14,-0.01 -0.41,0.32 -0.45,0.52 -0.17,0.9 -0.28,1.81 -0.43,2.71 -0.03,0.16 -0.13,0.3 -0.2,0.45 -0.05,-0.02 -0.09,-0.04 -0.14,-0.06 0,-1.13 0,-2.26 0,-3.44z"/>
  <path fill="#354B80" fill-rule="nonzero" d="M50.45 45.27c-0.1,0.05 -0.18,0.07 -0.19,0.1 -0.17,0.91 -0.34,1.83 -0.5,2.74 -0.05,0.25 0.08,0.65 -0.38,0.54 0.03,-0.94 0.23,-1.89 0.05,-2.76 -0.29,-1.39 -0.3,-2.78 -0.36,-4.17 -0.01,-0.28 -0.06,-0.46 -0.38,-0.57 -0.23,-0.08 -0.41,-0.34 -0.61,-0.52 0.02,-0.06 0.05,-0.12 0.07,-0.19 0.3,0.06 0.6,0.13 0.93,0.2 0.41,-0.51 0.76,-0.53 1.3,-0.07 0.35,-0.08 0.66,-0.15 0.96,-0.22 0.04,0.07 0.08,0.14 0.12,0.21 -0.27,0.26 -0.54,0.52 -0.85,0.82 0.08,0.33 0.38,0.39 0.7,0.36 0.61,-0.05 1.21,-0.11 1.81,-0.22 0.58,-0.11 1.02,0.05 1.2,0.61 0.23,0.69 0.37,1.41 0.43,2.16 -0.06,-0.14 -0.12,-0.28 -0.19,-0.42 -0.02,0 -0.04,0.01 -0.07,0.01 0.16,0.77 0.35,1.53 0.46,2.3 0.12,0.79 0.16,1.6 0.23,2.38 -0.52,0.2 -0.51,-0.09 -0.47,-0.39 0.18,-1.41 -0.55,-2.45 -1.4,-3.63 0,0.25 -0.03,0.35 0.01,0.41 0.54,1.14 -0.09,2.19 -0.24,3.27 -0.05,0.32 -0.12,0.31 -0.48,0.27 0.11,-0.56 0.26,-1.11 0.31,-1.68 0.03,-0.32 -0.13,-0.64 -0.16,-0.97 -0.07,-0.68 -0.61,-0.7 -1.08,-0.73 -0.14,-0.01 -0.41,0.32 -0.45,0.52 -0.17,0.9 -0.28,1.81 -0.43,2.71 -0.03,0.16 -0.13,0.3 -0.2,0.45 -0.05,-0.02 -0.09,-0.04 -0.14,-0.06 0,-1.13 0,-2.26 0,-3.44z"/>
  <path fill="white" fill-rule="nonzero" d="M60.25 46.48l0.99 1.54 -0.57 -3.62 1.01 3.61 0.26 -3.21 0.52 3.19c0,0 0.58,-4.3 1.77,-5.35 0,0 -1.45,4.46 -0.82,5.33l1.38 -3.76 0.44 0.16 -1.04 3.58 1.44 -1.47 -0.57 1.45 2.13 -1.49 -1.6 1.96 6.35 0.41 -0.67 1.06 -6.71 -0.78c0,0 -5.32,-0.74 -6.61,-0.49 -1.3,0.26 -4.43,0.11 -4.43,0.11l-6.26 -0.32 -3.1 0.96 -1.92 -0.35 -2.08 0.05 -3.65 0.09 -3.62 1.1c0,0 -3.2,0.5 -0.03,-1l1.22 -0.03 2.33 -0.54 -2.03 -1.38 2.02 0.9 -0.95 -3.3 1.62 2.2 0.29 -2.08 0.55 1.29 0.38 -2.09 0.66 -1.32 0.13 1.82 -0.63 2.48 1.65 -0.18 -0.75 1.1 4.17 -0.11c0,0 2.78,0.13 3.04,-0.08 0.26,-0.21 3.04,-0.08 3.04,-0.08l2.43 -0.06 3.14 0.4 3.72 -0.58 0.96 -0.03c0,0 1.75,0.6 0.41,-1.09z"/>
  <path fill="white" fill-rule="nonzero" d="M28.7 46.22l1.03 1.52 -0.65 -3.61 1.08 3.59 0.2 -3.21 0.58 3.18c0,0 0.49,-4.31 1.66,-5.39 0,0 -1.35,4.49 -0.7,5.34l1.3 -3.79 0.44 0.15 -0.96 3.6 1.41 -1.5 -0.54 1.46 2.1 -1.53 -1.56 1.99 6.36 0.27 -0.65 1.07 -6.72 -0.64c0,0 -5.33,-0.63 -6.62,-0.35 -1.29,0.29 -4.42,0.21 -4.42,0.21l-6.27 -0.19 -3.08 1.03 -1.93 -0.31 -2.08 0.1 -3.64 0.17 -3.6 1.18c0,0 -3.19,0.57 -0.05,-1l1.21 -0.06 2.32 -0.59 -2.06 -1.34 2.04 0.85 -1.02 -3.28 1.67 2.17 0.25 -2.09 0.58 1.28 0.34 -2.1 0.63 -1.33 0.17 1.82 -0.58 2.49 1.64 -0.21 -0.73 1.12 4.16 -0.2c0,0 2.78,0.07 3.04,-0.14 0.25,-0.21 3.04,-0.14 3.04,-0.14l2.43 -0.11 3.15 0.34 3.71 -0.66 0.95 -0.05c0,0 1.76,0.56 0.38,-1.1z"/>
  <path fill="#354B80" fill-rule="nonzero" d="M55.97 29.74c0.28,1.8 1.41,2.72 3.24,2.59 -0.54,-1.59 -1.73,-2.29 -3.28,-2.55 0,-0 0.03,-0.04 0.03,-0.04z"/>
  <path fill="#354B80" fill-rule="nonzero" d="M25.24 4.4c1.1,-1.81 1.12,-2.69 0.14,-3.91 -1.16,1.66 -1.2,2.46 -0.14,3.91z"/>
  <path fill="#354B80" fill-rule="nonzero" d="M45.82 7.05c0.54,-2.06 0.29,-2.89 -1.14,-3.85 -0.63,1.47 -0.27,2.64 1.18,3.82 -0,0 -0.04,0.04 -0.04,0.04z"/>
  <path fill="#354B80" fill-rule="nonzero" d="M10.36 23.58c-0.1,-1.88 -0.86,-2.87 -2.42,-3.18 0.16,1.98 0.62,2.57 2.46,3.14 -0,0 -0.04,0.04 -0.04,0.04z"/>
  <path fill="#354B80" fill-rule="nonzero" d="M10.99 16.1c-0.27,-1.98 -0.85,-2.72 -2.37,-3.09 -0.01,1.8 0.57,2.58 2.37,3.09z"/>
  <path fill="#354B80" fill-rule="nonzero" d="M51.22 27.34c1.89,-0.97 2.28,-1.6 1.98,-3.21 -1.71,0.78 -2.3,1.74 -1.98,3.21z"/>
  <path fill="#354B80" fill-rule="nonzero" d="M61.48 26.72c-1.43,0.06 -2.64,0.24 -3.23,1.68 1.75,0.32 2.47,-0.04 3.23,-1.68z"/>
  <path fill="#354B80" fill-rule="nonzero" d="M65.73 15.92c-1.29,0.52 -2.41,1.01 -2.5,2.58 1.82,-0.37 2.28,-0.84 2.5,-2.58z"/>
  <path fill="#354B80" fill-rule="nonzero" d="M24.89 20.67c0.87,-1.45 0.74,-2.54 -0.43,-3.56 -0.73,1.32 -0.43,2.49 0.46,3.59 0,0 -0.03,-0.03 -0.03,-0.03z"/>
  <path fill="#354B80" fill-rule="nonzero" d="M55.68 6.69c0.01,-0.77 0.1,-1.55 -0,-2.3 -0.06,-0.41 -0.46,-0.77 -0.75,-1.23 -0.85,1.84 -0.56,2.95 0.8,3.49 0,-0 -0.04,0.04 -0.04,0.04z"/>
  <path fill="#354B80" fill-rule="nonzero" d="M35.5 18.3c1.81,-0.85 2.14,-1.38 1.9,-2.94 -1.16,0.61 -2,1.37 -1.9,2.94z"/>
  <path fill="#354B80" fill-rule="nonzero" d="M5.75 28.38c1.3,-0.76 2.29,-1.42 1.94,-3.03 -1.23,0.58 -1.99,1.38 -1.94,3.03z"/>
  <path fill="#354B80" fill-rule="nonzero" d="M43.6 13.33c-0.43,1.28 -0.66,2.39 0.51,3.3 0.74,-1.46 0.64,-2.15 -0.51,-3.3z"/>
  <path fill="#354B80" fill-rule="nonzero" d="M56.55 18.41c-1.02,-0.65 -1.94,-1.67 -3.37,-0.89 1.25,1.39 1.83,1.54 3.39,0.87 0,-0 -0.02,0.02 -0.02,0.02z"/>
  <path fill="#354B80" fill-rule="nonzero" d="M32.42 1.02c-0.89,0.6 -1.78,1.21 -2.67,1.81 1.78,0.49 2.49,0.03 2.96,-1.45 -0.1,-0.12 -0.19,-0.24 -0.29,-0.36z"/>
  <path fill="#354B80" fill-rule="nonzero" d="M57.19 5.89c1.19,-0.41 2.24,-0.89 2.3,-2.41 -1.7,0.37 -2.29,0.98 -2.3,2.41z"/>
  <path fill="#354B80" fill-rule="nonzero" d="M61.46 14.9c1.92,-1.25 1.99,-1.35 2.04,-2.71 -1.68,0.48 -2.11,1.07 -2.01,2.75 0,0 -0.03,-0.03 -0.03,-0.03z"/>
  <path fill="#354B80" fill-rule="nonzero" d="M33.5 7.1c0.15,-1.13 1.16,-2.26 0.01,-3.4 -1.07,1.44 -1.07,2.11 -0.01,3.4 0,-0 -0,0 -0,0z"/>
  <path fill="#354B80" fill-rule="nonzero" d="M45.79 0.86c0.28,1.34 0.7,2.3 2.16,2.59 -0.26,-1.28 -0.58,-2.31 -2.16,-2.59z"/>
  <path fill="#354B80" fill-rule="nonzero" d="M40.27 5.64c0.21,-1.35 0.2,-2.41 -1.14,-3.12 -0.15,1.27 -0.21,2.34 1.14,3.12z"/>
  <path fill="#354B80" fill-rule="nonzero" d="M12.14 9.32c0.38,1.32 0.66,2.31 0.95,3.3 0.96,-1.46 0.69,-2.35 -0.95,-3.3z"/>
  <path fill="#354B80" fill-rule="nonzero" d="M21.85 3.71c-1.13,-0.72 -2.12,-1.1 -3.37,-0.33 1.1,0.77 2.06,1.34 3.37,0.33z"/>
  <path fill="#354B80" fill-rule="nonzero" d="M60.91 23.53c0.33,1.58 0.82,2.02 2.33,2.05 -0.45,-1.11 -1.03,-1.99 -2.36,-2.02 -0,0 0.03,-0.03 0.03,-0.03z"/>
  <path fill="#354B80" fill-rule="nonzero" d="M41.45 5.41c1.15,-0.58 2,-1.21 1.76,-2.69 -1.16,0.55 -1.89,1.26 -1.76,2.69z"/>
  <path fill="#354B80" fill-rule="nonzero" d="M50.12 10.41c1.09,-0.76 1.64,-1.72 1.22,-3.17 -1.34,0.8 -1.39,1.96 -1.18,3.2 0,0 -0.03,-0.03 -0.03,-0.03z"/>
  <path fill="#354B80" fill-rule="nonzero" d="M49.18 21.58c0.1,1.22 1.11,1.71 2.74,1.25 -0.66,-1.11 -1.73,-1.13 -2.78,-1.22 0,-0 0.03,-0.03 0.03,-0.03z"/>
  <path fill="#354B80" fill-rule="nonzero" d="M35.49 14.39c1.29,-0.26 2.24,-0.55 2.47,-1.92 -1.21,0.11 -2.06,0.54 -2.47,1.92z"/>
  <path fill="#354B80" fill-rule="nonzero" d="M63.71 23.03c1.13,0.51 2.07,0.77 2.99,-0.18 -1.01,-0.54 -1.94,-0.85 -2.99,0.18z"/>
  <path fill="#354B80" fill-rule="nonzero" d="M67.06 13.59c-1.24,-0.24 -2.16,-0.12 -2.77,1.11 1.18,0.14 2.09,-0 2.77,-1.11z"/>
  <path fill="#354B80" fill-rule="nonzero" d="M36.78 3.42c-0.39,-0.75 -0.79,-1.5 -1.18,-2.24 -0.21,0.11 -0.42,0.21 -0.62,0.32 0.38,0.77 0.76,1.53 1.13,2.3 0.22,-0.12 0.45,-0.25 0.67,-0.37z"/>
  <path fill="#354B80" fill-rule="nonzero" d="M20.46 6.08c-0.42,0.74 -0.84,1.48 -1.26,2.22 0.19,0.11 0.39,0.23 0.58,0.34 0.47,-0.73 0.93,-1.47 1.39,-2.2 -0.24,-0.12 -0.48,-0.24 -0.71,-0.36z"/>
  <path fill="#354B80" fill-rule="nonzero" d="M22.47 11.18c-0.26,-0.84 -0.52,-1.67 -0.78,-2.51 -0.15,0.05 -0.3,0.1 -0.44,0.15 -0.21,1 -0.22,1.93 0.79,2.51 0.14,-0.05 0.29,-0.09 0.43,-0.14z"/>
  <path fill="#354B80" fill-rule="nonzero" d="M28.22 5.48c0.06,-1.05 0.45,-2.2 -0.92,-2.93 -0.39,1.26 0,2.16 0.95,2.89 -0,0 -0.03,0.04 -0.03,0.04z"/>
  <path fill="#354B80" fill-rule="nonzero" d="M11.48 18.18c-0.78,-0.37 -1.55,-0.75 -2.33,-1.12 -0.06,0.13 -0.12,0.25 -0.18,0.38 0.53,0.84 1.18,1.46 2.28,1.21 0.08,-0.16 0.15,-0.31 0.23,-0.47z"/>
  <path fill="#354B80" fill-rule="nonzero" d="M48.13 0.05c-0.06,0.8 -0.12,1.6 -0.18,2.41 0.21,0.02 0.43,0.04 0.65,0.06 0.08,-0.79 0.17,-1.58 0.25,-2.36 -0.24,-0.03 -0.48,-0.07 -0.72,-0.1z"/>
  <path fill="#354B80" fill-rule="nonzero" d="M59.63 30.47c0.74,0.29 1.49,0.58 2.23,0.87 0.05,-0.14 0.1,-0.27 0.15,-0.41 -0.56,-0.83 -1.29,-1.16 -2.39,-0.46z"/>
  <path fill="#354B80" fill-rule="nonzero" d="M27.96 1.12c0.4,0.66 0.81,1.31 1.21,1.97 0.19,-0.12 0.37,-0.23 0.56,-0.35 -0.41,-0.66 -0.81,-1.31 -1.21,-1.97 -0.19,0.12 -0.37,0.23 -0.56,0.35z"/>
  <path fill="#354B80" fill-rule="nonzero" d="M29.38 24.96c-0.75,-0.26 -1.5,-0.52 -2.26,-0.78 -0.08,0.21 -0.15,0.43 -0.23,0.64 0.76,0.27 1.51,0.54 2.27,0.8 0.07,-0.22 0.14,-0.44 0.21,-0.66z"/>
  <path fill="#354B80" fill-rule="nonzero" d="M54.67 21.03c0.7,0.55 1.39,1.1 2.09,1.64 0.09,-0.12 0.18,-0.24 0.27,-0.36 -0.47,-0.99 -1.09,-1.71 -2.37,-1.27 -0.01,0 0.01,-0.01 0.01,-0.01z"/>
  <path fill="#354B80" fill-rule="nonzero" d="M28.28 8.74c0.65,-0.37 1.29,-0.75 1.94,-1.12 -0.11,-0.19 -0.22,-0.38 -0.33,-0.56 -0.65,0.37 -1.29,0.75 -1.93,1.12 0.11,0.19 0.22,0.37 0.32,0.56z"/>
  <path fill="#354B80" fill-rule="nonzero" d="M20.38 12.91c-1,-0.27 -1.92,-0.27 -2.63,0.73 1.2,0.66 1.82,-0.32 2.61,-0.74 0.01,0.01 0.02,0.01 0.02,0.01z"/>
  <path fill="#354B80" fill-rule="nonzero" d="M42.3 6.87c-0.7,-0.05 -1.41,-0.09 -2.11,-0.14 -0.02,0.19 -0.04,0.39 -0.05,0.58 0.7,0.09 1.4,0.18 2.1,0.26 0.02,-0.23 0.04,-0.47 0.07,-0.7z"/>
  <path fill="#354B80" fill-rule="nonzero" d="M44.79 12.47c0.44,0.58 0.87,1.15 1.31,1.73 0.18,-0.14 0.36,-0.28 0.54,-0.42 -0.45,-0.57 -0.9,-1.13 -1.35,-1.7 -0.17,0.13 -0.33,0.26 -0.5,0.39z"/>
  <path fill="#354B80" fill-rule="nonzero" d="M33.61 17.28c0.77,-0.46 1.37,-1 1.02,-1.97 -0.16,-0.05 -0.31,-0.1 -0.47,-0.15 -0.17,0.72 -0.35,1.43 -0.52,2.15 0,0 -0.03,-0.03 -0.03,-0.03z"/>
  <path fill="#354B80" fill-rule="nonzero" d="M44.28 23.35c0.67,-0.81 1.14,-1.64 -0.04,-2.73 -0.15,0.89 -0.29,1.77 -0.44,2.66 0.16,0.03 0.32,0.05 0.47,0.08z"/>
  <path fill="white" fill-rule="nonzero" d="M24.89 20.67c0.62,0.04 1.24,0.08 1.82,0.12 -0.12,-0.61 -0.44,-1.27 -0.27,-1.46 1.06,-1.14 0.34,-2.43 0.47,-3.64 0.1,-0.97 -0.32,-1.55 -1.17,-1.97 -1.03,-0.51 -2.02,-1.11 -2.91,-1.61 0.6,-0.39 1.07,-0.7 1.7,-1.11 -0.22,0.53 -0.37,0.88 -0.55,1.31 0.47,0.17 0.86,0.31 1.3,0.47 0.24,-1.21 0.8,-1.91 2.33,-1.83 -0.46,0.38 -0.71,0.59 -0.97,0.8 -0.3,0.25 -0.61,0.49 -0.91,0.74 0.26,0.3 0.57,0.57 0.78,0.91 0.36,0.59 0.73,1.2 0.95,1.84 0.14,0.41 0.03,0.9 0.03,1.42 0.87,-0.94 1.62,-1.76 2.51,-2.73 0.44,1.63 -0.12,2.55 -1.14,3.12 -1.14,0.64 -1.25,1.64 -1.31,2.74 0.57,-0.17 1.08,-0.32 1.6,-0.47 0.04,0.11 0.08,0.23 0.12,0.35 -0.46,0.2 -0.91,0.39 -1.24,0.54 0.88,0.71 1.76,1.42 2.51,2.03 0.15,-0.6 0.33,-1.33 0.5,-2.05l0.55 0.04c0,0.71 0.01,1.42 -0.01,2.13 -0.01,0.41 -0.26,0.94 -0.09,1.22 0.85,1.4 1.81,2.73 2.77,4.14 1.97,-2.03 1.97,-5.86 0.32,-7.51 -0.52,0.17 -1.03,0.33 -1.53,0.49 -0.08,-0.17 -0.05,-0.11 -0.13,-0.29 0.37,-0.22 0.75,-0.44 1.28,-0.75 -0.85,-0.53 -1.56,-1.04 -2.33,-1.42 -0.64,-0.31 -1.36,-0.45 -2.04,-0.67 0.12,-0.39 0.06,-0.22 0.18,-0.61 0.79,0.2 1.57,0.41 2.34,0.61 0.23,-1.83 0.01,-2.71 -1.25,-3.81 -1.64,-1.44 -3.44,-2.73 -3.72,-4.79 -0.92,-0.29 -1.58,-0.49 -2.24,-0.7 0.07,-0.3 0.04,-0.18 0.11,-0.48 0.62,0.1 1.23,0.21 1.99,0.33 -0.38,-0.82 -0.7,-1.51 -1.02,-2.21l-0.32 0.94c-1.66,-0.18 -1.37,-0.15 -3.03,-0.33l-0.08 -0.71c0.87,-0.14 1.74,-0.28 2.56,-0.41 -3.05,-2.22 -3.05,-2.22 -2.95,-3.22 0.37,0.37 0.61,0.83 0.9,1.25 0.19,0.29 0.39,0.63 0.67,0.79 0.75,0.43 1.51,0.86 2.33,1.12 0.6,0.19 1.29,0.09 1.94,0.12l-0.03 0.03c0.43,-0.46 0.86,-0.92 1.29,-1.37 -0.23,0.74 -0.71,1.28 -1.12,1.88 -0.32,0.47 -0.81,1.02 -0.78,1.51 0.08,1.46 0.6,2.8 1.73,3.77 0.08,-0.8 0.16,-1.6 0.24,-2.4l0.61 -0.02c0.1,0.8 0.3,1.59 0.27,2.38 -0.04,0.94 0.61,1.87 1.65,1.99 1.11,0.13 1.05,-0.83 1.26,-1.48 0.1,-0.32 -0.06,-0.71 0.02,-1.04 0.12,-0.5 0.33,-0.97 0.51,-1.45 0.07,0.02 0.05,0.01 0.13,0.03 -0.12,1.07 -0.24,2.13 -0.36,3.24l1.74 0 0.04 0.32c-0.36,0.07 -0.73,0.25 -1.07,0.19 -0.94,-0.17 -1.29,0.52 -1.28,1.11 0.03,1.06 0.35,2.11 0.55,3.17l-0.04 -0.04c0.44,0.35 0.92,0.66 1.32,1.05 0.55,0.54 1.08,1.11 1.52,1.73 0.18,0.25 0.13,0.68 0.22,1.24 0.46,-0.65 0.85,-1.04 1.03,-1.52 0.16,-0.44 0.09,-0.96 0.12,-1.54 0.23,0.27 0.42,0.49 0.61,0.71 0.16,0.02 0.31,0.04 0.47,0.06 -1.04,-2.58 1.96,-3.65 1.86,-5.89 -2.73,-0.51 -2.86,-0.64 -3.08,-3.24 -0.11,-1.35 -0.99,-1.73 -2.09,-1.58 -1.38,0.19 -2.33,-0.45 -3.56,-1.42 0.7,0.11 1.08,0.17 1.46,0.23l-0 0c0.68,1.4 2.09,0.77 2.73,0.48 1.67,-0.77 0.92,-2.42 0.58,-3.98 1.01,1.08 1.18,2.04 0.82,3.22 -0.12,0.39 0.45,0.99 0.71,1.49 0.34,-0.33 0.7,-0.65 1,-1.01 0.17,-0.22 0.24,-0.53 0.35,-0.8 0.12,0.05 0.24,0.09 0.35,0.14 -0.3,0.66 -0.43,1.55 -0.94,1.93 -1.15,0.85 -0.89,1.73 -0.56,2.64 0.58,-0.74 1.18,-1.48 1.77,-2.23 0.35,0.26 0.19,0.14 0.55,0.4 -0.53,0.77 -1.05,1.54 -1.63,2.39l3.65 0c-1.32,-1.75 -1.41,-2.11 -0.97,-3.48 1.37,0.55 1.04,1.82 1.18,3.2 1.17,-1.58 0.86,-3.76 2.77,-4.49l-0.04 0.03c1.23,-0.35 1.82,-1.25 2.16,-2.42 0.44,-1.53 1.25,-2.27 2.69,-2.33 -0.39,0.62 -0.8,1.34 -1.41,1.64 -0.86,0.42 -1.15,0.91 -0.98,1.6 1.02,-0.07 1.97,-0.13 3.24,-0.21 -0.95,1.35 -1.93,1.26 -3.01,1.18 -0.54,-0.04 -1.14,0.33 -1.67,0.6 -0.07,0.04 0.11,0.87 0.2,0.87 0.55,0.03 1.1,-0.08 1.66,-0.13 0.06,-0.01 0.13,0.04 0.2,0.06 -0.47,0.96 -1.17,1.04 -2.08,0.66 -0.51,-0.21 -1.29,-0.55 -1.56,-0.34 -0.45,0.36 -0.58,1.11 -0.77,1.53 1.15,0.18 2.07,0.32 2.98,0.46 -0.03,0.23 -0.06,0.45 -0.09,0.68 -0.92,-0.11 -1.83,-0.22 -2.76,-0.34 -0.8,1.41 -2.85,2.25 -2.68,4.43 0.01,0.17 -0.35,0.36 -0.5,0.57 -0.17,0.24 -0.33,0.5 -0.44,0.78 -0.46,1.1 -0.89,2.21 -1.35,3.32 -0.2,0.48 -0.44,0.95 -0.66,1.43 0.3,0.18 0.2,0.12 0.5,0.31 0.81,-1.01 1.59,-2.05 2.45,-3.02 0.47,-0.53 1.04,-1.19 1.66,-1.32 1.23,-0.26 2.71,0.06 2.46,-1.99 -0.02,-0.16 0.23,-0.35 0.37,-0.52 0.34,-0.42 0.69,-0.84 1.04,-1.26 -0.07,0.52 -0.31,0.97 -0.58,1.39 -0.43,0.68 -0.8,1.39 0.21,1.84 0.93,0.42 2.18,-0.3 2.52,-1.25 0.25,-0.67 0.72,-1.26 0.96,-1.93 0.15,-0.43 0.24,-1.06 0.03,-1.41 -0.42,-0.68 -1.07,-1.22 -1.8,-2.01 0.58,0.23 0.97,0.38 1.35,0.53l-0.03 -0.04c0.27,0.24 0.53,0.48 0.68,0.61 0.75,-0.74 1.25,-1.63 1.99,-1.91 1.53,-0.58 1.99,-0.77 2.8,-2.24 0.04,-0.07 0.09,-0.15 0.14,-0.22l-0.05 0.04c0.13,0.05 0.39,0.14 0.38,0.16 -0.13,0.45 -0.36,0.88 -0.41,1.33 -0.16,1.47 -0.35,1.69 -1.79,1.46 -1.22,-0.2 -1.92,0.22 -2.17,1.42l1.2 0.29c-0.02,0.16 -0.01,0.11 -0.03,0.27l-1.06 0c-0.38,0.96 -0.72,1.84 -1.13,2.89 1.01,-0.39 1.91,-0.73 2.82,-1.08 -0.1,-0.08 -0.2,-0.17 -0.3,-0.25 0.53,-0.82 1.06,-1.64 1.6,-2.46 0.86,1.47 -0.14,2.05 -0.91,2.73 1.48,0.52 2.74,-0.17 3.09,-1.48 0.23,-0.87 0.65,-1.68 0.99,-2.52 0.03,0.03 0.06,0.05 0.09,0.08 0.21,-1.07 0.43,-2.13 0.7,-3.49 1.32,1.44 0.48,2.44 0.01,3.53 1.01,-0.47 1.83,-1.1 2.72,-1.21 0.89,-0.11 1.84,0.3 3.09,0.54 -1.71,1.36 -2.86,0.53 -3.68,0.13 -0.96,0.53 -1.74,0.9 -2.44,1.39 -0.34,0.23 -0.51,0.7 -0.76,1.06 0.1,0.09 0.2,0.17 0.3,0.26 1.11,-1.03 2.33,-1.07 3.68,-0.57 -0.74,1.23 -1.81,1.14 -2.93,1.02 -0.34,-0.04 -0.89,0.08 -1.03,0.32 -0.26,0.44 -0.55,1.16 -0.36,1.52 0.38,0.72 1.01,1.25 2.06,0.94 0.64,-0.19 1.39,-0.02 2.1,-0.01l-0.03 -0.04c0.55,0.24 1.09,0.47 1.64,0.71 -0.03,0.1 -0.02,0.07 -0.05,0.17 -1.16,-0.21 -2.33,-0.42 -3.49,-0.63 -0.09,0.25 -0.07,0.19 -0.16,0.44 0.33,0.2 0.66,0.39 0.99,0.59 -0.07,0.08 -0.14,0.17 -0.21,0.26 -0.92,-0.38 -1.91,-0.63 -2.73,-1.17 -1.66,-1.09 -2.98,-1.3 -4.61,-0.58 0.44,0.35 0.96,0.77 1.48,1.18 -0.89,-0.16 -1.78,-0.31 -2.67,-0.47l-0.01 -0.31c-0.33,0.28 -0.65,0.55 -1.08,0.91 0.4,0.09 0.67,0.15 1.05,0.24 -0.87,0.4 -1.65,0.75 -2.53,1.15 0.46,0.53 0.76,0.87 1.21,1.39 -0.42,-0.05 -0.72,-0 -0.78,-0.1 -0.65,-1.19 -1.64,-0.73 -2.62,-0.65 -2.05,0.15 -3.81,0.57 -4.52,2.85 -0.14,0.45 -0.69,0.77 -1.07,1.17 0.57,0.28 1.14,0.56 1.72,0.84 -0.12,0.3 -0.07,0.18 -0.19,0.48 -0.74,-0.24 -1.49,-0.48 -2.3,-0.74 -1.4,0.65 -1.73,2.06 -1.99,3.5 -0.1,0.52 -0.23,1.03 -0.25,1.55 -0.02,0.62 0.07,1.24 0.11,1.86 0.32,-0.43 0.58,-0.95 0.98,-1.29 0.73,-0.61 1.55,-1.11 2.05,-1.45 -0.41,-0.42 -0.88,-0.9 -1.35,-1.37 0.17,-0.19 0.34,-0.38 0.51,-0.57 0.54,0.41 1.08,0.82 1.59,1.2 0.4,-0.63 0.71,-1.51 1.32,-1.97 0.62,-0.46 1.55,-0.5 2.4,-0.74l0 -1.32c0.13,-0.02 0.09,-0.01 0.22,-0.03 0.1,0.34 0.2,0.67 0.4,1.32 0.6,-2.04 2.06,-2.94 3.58,-3.78 0.21,-0.11 0.45,-0.38 0.47,-0.59 0.15,-1.99 1.45,-2.53 3.16,-2.56 0.17,-0 0.35,-0.04 0.52,-0.06 -0.59,0.25 -1.16,0.53 -1.76,0.75 -0.85,0.31 -1.28,1.01 -0.92,1.74 0.32,0.65 1.29,1.62 1.64,1.5 1.2,-0.42 2.24,-1.25 3.35,-1.93l-0.02 0.02c1.05,-1.21 2.39,-1.66 3.99,-1.4 -0.7,0.31 -1.5,0.36 -2.13,0.71 -0.5,0.28 -0.79,0.93 -1.17,1.41 0.28,0.19 0.56,0.39 0.74,0.52 0.54,-0.7 0.98,-1.27 1.42,-1.84 0.27,0.18 0.16,0.11 0.43,0.29 -0.33,0.56 -0.66,1.13 -1.02,1.74 1.91,-0.32 1.91,-2.91 3.98,-2.92 -0.42,0.44 -0.84,0.88 -1.3,1.36 1.41,0.7 3.24,0.75 3.84,2.6 -0.78,-0.41 -1.32,-1.22 -2.06,-1.51 -0.78,-0.3 -1.88,-0.94 -2.7,0.43 1.49,0.19 2.51,0.84 2.94,2.28 -1.64,0.25 -2.18,-0.98 -2.87,-1.94 -0.84,0.22 -1.64,0.43 -2.47,0.65 0.99,1.9 2.47,2.37 4.31,2 -0.54,0.25 -1.08,0.51 -1.62,0.76l0.03 -0.03c-0.81,-0.27 -1.63,-0.54 -2.27,-0.75 -0.18,0.66 -0.41,1.48 -0.71,2.53 -1.09,-1.35 -0.28,-2.21 0.15,-3.13 -0.25,-0.36 -0.52,-0.7 -0.72,-1.07 -0.85,-1.55 -1.63,-1.58 -2.7,-0.06l0.02 -0.01c-0.36,0.13 -0.72,0.27 -0.98,0.37 0.08,0.67 0.15,1.26 0.22,1.86 -0.28,0.06 -0.17,0.03 -0.45,0.09 -0.12,-0.45 -0.23,-0.91 -0.37,-1.36 -0.12,-0.38 -0.18,-0.84 -0.43,-1.09 -1.34,-1.34 -1.96,-1.19 -3.51,0.71l0.03 -0.03c-0.6,0.56 -1.21,1.13 -1.93,1.8 0.99,0.17 1.61,0.28 2.25,0.39 -0.03,0.31 -0.02,0.19 -0.04,0.51l-3.64 0 -0.21 0.69c0.77,0.41 1.92,1.35 2.25,1.12 1.46,-1 1.88,-0.08 2.51,0.9 0.68,1.04 3.21,1.21 3.51,0.19 0.59,-2 1.84,-1.46 3.35,-1.17 -0.94,0.2 -1.66,0.36 -2.5,0.54 1.1,0.4 1.88,0.69 2.66,0.98 -0.13,0.39 -0.07,0.21 -0.2,0.6 -0.76,-0.23 -1.52,-0.46 -2.28,-0.7 -0.62,0.29 -1.37,0.63 -2.12,0.97 1.46,1.19 1.94,1.26 3.41,0.36 0.91,-0.56 1.6,-0.54 2.27,0.67 -1.12,-0.7 -1.99,-0.86 -2.54,0.35l0.03 -0.04c-0.66,0.12 -1.33,0.25 -1.82,0.34 -0.1,1 -0.21,2.05 -0.35,3.36 -1.07,-0.98 -1.09,-1.78 -0.78,-2.68 0.49,-1.42 0.03,-2.08 -1.59,-2.39 0.11,0.62 0.22,1.25 0.33,1.89 -0.32,0.07 -0.18,0.04 -0.49,0.11 -0.12,-0.49 -0.13,-1.04 -0.38,-1.44 -0.45,-0.74 -0.95,-1.49 -1.61,-2.03 -0.26,-0.21 -0.97,0.12 -1.85,0.27 1.8,0.93 2.26,2.11 2.2,3.66 -1.42,-0.35 -1.92,-1.3 -2.02,-2.45 -0.11,-1.32 -1.3,-1.87 -1.92,-2.81 -0.07,-0.11 -0.79,0.06 -1.08,0.28 -0.78,0.61 -1.5,1.3 -2.22,1.98 -0.27,0.26 -0.48,0.59 -0.78,0.96 0.52,0.03 0.9,0.06 1.27,0.08 -0.46,0.44 -1.15,0.52 -1.42,0.9 -1.04,1.46 -1.9,2.98 -2.86,4.5 0.4,-1.08 -1.99,2.31 -1.53,1.09 0.52,-0.12 3.33,-3.5 -0.36,2.53 0.58,-1.11 1.23,-2.36 1.89,-3.62 -0.39,1.53 -0.43,3.02 0.34,4.47 0.11,0.22 0.09,0.51 0.11,0.77 0.08,1.04 2.09,7.23 2.15,8.15 -0.54,-0.34 -3.68,-2.37 -4.43,-2.84 -0.07,0.1 0.32,-0.8 0.25,-0.7 1.48,1.04 2.95,2.09 4.44,3.12 1.11,0.77 -0.2,1.12 1.23,0.6 0.59,-0.21 1.3,-0.07 1.98,-0.04 0.11,0 0.19,0.09 0.19,0.2l0 0c-0,0.11 -0.09,0.19 -0.19,0.19 -2.78,0.02 -3.14,0.6 -5.87,-0.44 -0.35,-0.13 -0.95,-0.24 -1.14,-0.06 -0.97,0.92 -1.8,0.24 -2.72,-0.03 -0.28,-0.08 -0.69,0.26 -1.17,0.47 -1.3,-2.36 -2.92,0.29 -4.54,0.16 0.03,-0.22 0.05,-0.43 0.1,-0.8 -1.67,0.43 -3.2,0.83 -4.74,1.23 -0.07,-0.21 -0.04,-0.13 -0.11,-0.34 1.52,-0.61 3.11,-1.09 4.53,-1.87 1.12,-0.61 2.39,-1.22 2.11,-3.05 -0.19,-1.28 0.11,-5.21 0.24,-6.52 0.03,-0.32 0.23,-0.65 0.41,-0.94 1.05,-1.66 0.89,-3.98 -1.29,-4.71 -1.23,-0.41 -2.26,-1.38 -3.44,-1.99 -0.66,-0.34 -1.48,-0.7 -2.17,-0.62 -1.34,0.15 -2.64,0.61 -4.07,0.97 0.13,1.42 -0.88,2.27 -2.27,3 -0.41,-1.84 0.94,-2.63 1.98,-3.78 -0.82,-0.31 -1.66,-0.65 -2.4,-0.5 -1.02,0.22 -1.96,0.81 -2.89,1.22 -0.37,0.6 -0.77,1.25 -1.17,1.91 -0.17,-0.09 -0.33,-0.18 -0.5,-0.27 0.29,-0.6 0.58,-1.2 0.9,-1.85 -0.4,0.07 -0.8,0.15 -1.2,0.22 -0.05,-0.19 -0.03,-0.11 -0.08,-0.3 0.7,-0.22 1.41,-0.44 2.11,-0.66 -0.11,-0.18 -0.27,-0.46 -0.44,-0.74 0.1,-0.1 0.08,-0.08 0.18,-0.18 0.48,0.29 0.97,0.58 1.51,0.9 0.63,-0.44 1.28,-0.89 1.93,-1.34 -0.11,-0.25 -0.09,-0.2 -0.19,-0.45 -0.98,0.2 -1.95,0.52 -2.93,0.55 -1.12,0.03 -2.24,-0.23 -3.36,-0.36 0,-0.12 0,-0.08 0,-0.2 0.93,-0.1 1.86,-0.21 2.73,-0.31 -0.05,-0.26 -0.11,-0.66 -0.18,-1.07 0.1,-0.03 0.21,-0.07 0.31,-0.1 0.22,0.51 0.44,1.02 0.69,1.62 0.87,-0.32 1.74,-0.64 2.62,-0.96 -0.03,-0.27 -0.06,-0.6 -0.09,-0.88 0.86,1.02 1.72,2.04 2.58,3.07 0.14,-0.09 0.1,-0.06 0.23,-0.15 -0.26,-0.58 -0.52,-1.15 -0.79,-1.73 0.25,-0.15 0.16,-0.09 0.41,-0.24 0.46,0.63 0.92,1.27 1.44,1.98 0.27,-0.03 0.64,-0.08 1.06,-0.14 -0.15,-0.4 -0.26,-0.72 -0.37,-1.03 0.16,-0.14 0.32,-0.27 0.48,-0.41 0.17,0.5 0.34,1 0.51,1.5 0.18,-0.19 0.35,-0.38 0.53,-0.56 -1.13,-0.91 -2.26,-1.83 -3.29,-2.66 -0.54,0.24 -1.03,0.46 -1.53,0.68 -0.05,-0.11 -0.1,-0.22 -0.15,-0.33 0.34,-0.21 0.68,-0.43 0.93,-0.59 -0.43,-0.38 -0.88,-0.77 -1.33,-1.16 0.1,-0.13 0.06,-0.08 0.16,-0.21 1.2,0.77 2.39,1.53 3.51,2.25 0.08,-0.42 0.17,-0.91 0.27,-1.39 0.22,0.02 0.14,0.01 0.35,0.03l0 1.74c0.78,0.28 1.5,0.54 2.15,0.77 0.34,-0.44 0.68,-0.89 1.03,-1.34 0.23,0.15 0.14,0.09 0.36,0.24 -0.3,0.52 -0.59,1.04 -0.95,1.67 0.75,0.54 1.55,1.12 2.41,1.74l0 -1.58c0.21,-0.03 0.15,-0.02 0.36,-0.05 0.19,0.69 0.38,1.38 0.55,2 0.88,0.14 1.73,0.28 2.58,0.4 0.68,0.09 1.16,-0.14 0.7,-0.85 -0.59,-0.92 -1.36,-1.73 -2.01,-2.61 -0.29,-0.4 -0.71,-0.89 -0.68,-1.31 0.09,-1.18 -0.62,-1.53 -1.52,-1.78 -1.22,-0.34 -2.41,-0.81 -3.65,-0.99 -0.96,-0.15 -2.22,-0.59 -2.6,1.02 -0.05,0.2 -0.38,0.34 -0.87,0.75 0.27,-0.74 0.4,-1.11 0.53,-1.48 -1.56,-0.12 -3.01,-0.23 -4.22,-0.33 -0.1,1.41 -0.18,2.59 -0.28,4.05 -1.57,-1.29 -0.77,-2.45 -0.48,-3.86 -1.54,1.24 -2.83,2.29 -4.13,3.34 -0.13,-0.13 -0.09,-0.09 -0.22,-0.21 0.22,-0.29 0.45,-0.59 0.68,-0.89 -1.7,-0.51 -2.06,-0.33 -2.14,1.01 0.47,0.27 0.94,0.53 1.41,0.78 -0.12,0.23 -0.06,0.12 -0.18,0.35 -0.43,-0.21 -0.86,-0.42 -1.32,-0.64 -0.26,0.55 -0.52,1.08 -0.77,1.61 0.33,0.28 0.59,0.51 0.87,0.75 -0.45,0.07 -0.78,0.12 -1.37,0.22 0.3,-1.14 0.58,-2.18 0.86,-3.24 -3.53,-0.19 -4.31,-1.01 -3.08,-3.5 0.13,0.77 0.25,1.55 0.4,2.46 1.44,0.91 1.67,0.87 2.9,-0.66l-0.04 0.04c1.29,-0.45 2.95,0.68 4.03,-1.08 -1.79,-0.48 -2.03,-1.97 -2.02,-3.55 0.29,0.81 0.58,1.62 0.9,2.53 0.37,-0.56 0.62,-0.93 0.86,-1.3 0.17,0.09 0.1,0.06 0.27,0.15 -0.18,0.39 -0.37,0.78 -0.56,1.2 1.82,1.13 3.07,-1.09 4.81,-0.54 -0.29,-0.63 -0.48,-1.03 -0.66,-1.43 0.15,-0.11 0.12,-0.08 0.27,-0.19 0.6,0.56 1.13,1.43 1.83,1.61 0.79,0.21 1.74,-0.19 3.01,-0.39 -1.74,-0.84 -1.85,-3.05 -3.84,-3.08 -0.25,0.38 -0.49,0.75 -0.74,1.12 -0.16,-0.09 -0.1,-0.05 -0.26,-0.14 0.18,-0.39 0.35,-0.77 0.63,-1.37 -0.81,0.11 -1.42,0.2 -1.77,0.25l0 2.78c-0.39,0.02 -0.23,0.01 -0.61,0.04 -0.09,-0.8 -0.19,-1.6 -0.3,-2.57 -0.97,0.67 -1.94,1.33 -2.9,1.99 -0.08,-0.12 -0.16,-0.24 -0.24,-0.36 0.35,-0.29 0.7,-0.59 0.97,-0.81 -0.72,-0.59 -1.47,-1.19 -2.22,-1.8 0.87,0.2 1.61,0.83 2.38,0.88 0.81,0.05 1.65,-0.47 2.6,-0.78 -0.76,-0.71 -1.72,-1.18 -1.75,-1.71 -0.09,-1.54 -1.05,-1.71 -2.17,-1.9 -0.23,-0.04 -0.43,-0.24 -0.64,-0.37 0.03,-0.08 0.06,-0.16 0.09,-0.24 1.17,0.3 2.33,0.59 3.54,0.9 0.21,-0.19 0.55,-0.49 0.89,-0.79 0.11,0.1 0.22,0.2 0.33,0.31 -0.41,0.48 -0.81,0.97 -1.3,1.55 0.07,1.38 1.66,1.3 2.32,2.16 0.04,-0.64 0.07,-1.23 0.11,-1.83 0.26,0.01 0.14,0.01 0.41,0.01l0 1.67c1.22,0.49 2.3,0.93 3.4,1.37 0.61,-1.96 0.1,-3.66 -1.64,-4.98l0.01 0.01c-0.84,-0.39 -1.65,-0.91 -2.54,-1.15 -1.36,-0.37 -2.07,-1.19 -1.69,-2.79 0.35,0.72 0.71,1.44 1.14,2.33 0.5,0.05 1.23,0.11 2.01,0.18 -0.08,-0.62 -0.14,-1.17 -0.22,-1.8 0.52,1.02 0.99,1.95 1.55,3.03 0.29,-0.58 0.43,-0.87 0.58,-1.16 0.15,-0.01 0.31,-0.01 0.46,-0.02 -1.06,1.53 0.2,2.18 0.77,3.13 0.39,-0.45 0.72,-0.83 1.08,-1.23 -0.29,1.51 -0.58,2.88 -0.79,4.25 -0.27,1.75 0.33,2.53 2.21,3.01l-0.04 -0.03z"/>
  <g id="_2018605175216">
   <path fill="#354B80" fill-rule="nonzero" d="M126.37 50.46c0,0.63 0.01,1.09 0.04,1.37 0.02,0.19 0.07,0.32 0.27,0.35 0.09,0.02 0.24,0.02 0.33,0.02 0.08,0 0.12,0.04 0.12,0.07 0,0.05 -0.05,0.07 -0.15,0.07 -0.43,0 -0.91,-0.02 -1.08,-0.02 -0.18,0 -0.61,0.02 -0.86,0.02 -0.09,0 -0.14,-0.02 -0.14,-0.07 0,-0.03 0.02,-0.07 0.1,-0.07 0.1,0 0.18,-0.01 0.24,-0.02 0.14,-0.03 0.18,-0.15 0.2,-0.35 0.03,-0.28 0.03,-0.76 0.03,-1.39l0 -1.15c0,-0.99 0,-1.18 -0.01,-1.38 -0.02,-0.22 -0.08,-0.3 -0.29,-0.35 -0.05,-0.02 -0.17,-0.02 -0.27,-0.02 -0.06,0 -0.11,-0.02 -0.11,-0.07 0,-0.05 0.05,-0.06 0.16,-0.06 0.35,0 0.78,0.02 0.97,0.02 0.26,0 1.76,0.01 1.92,0 0.12,-0.01 0.21,-0.02 0.28,-0.03 0.04,-0.01 0.07,-0.04 0.11,-0.04 0.02,0 0.05,0.03 0.05,0.06 0,0.05 -0.03,0.12 -0.05,0.29 -0.01,0.07 -0.02,0.45 -0.03,0.53 -0.01,0.05 -0.02,0.13 -0.07,0.13 -0.05,0 -0.08,-0.03 -0.08,-0.11 0,-0.05 0.01,-0.15 -0.04,-0.25 -0.05,-0.09 -0.18,-0.19 -0.43,-0.2l-1.12 -0.02c-0.04,0 -0.06,0.02 -0.06,0.09l0 1.58c0,0.04 0.01,0.06 0.05,0.06l0.95 -0.01c0.12,0 0.21,0 0.31,-0.01 0.12,-0.01 0.22,-0.03 0.29,-0.11 0.04,-0.04 0.05,-0.07 0.09,-0.07 0.02,0 0.04,0.02 0.04,0.06 0,0.04 -0.03,0.22 -0.05,0.42 -0.02,0.13 -0.02,0.43 -0.02,0.48 0,0.05 -0.01,0.15 -0.08,0.15 -0.04,0 -0.06,-0.05 -0.06,-0.09 0,-0.05 -0.02,-0.12 -0.05,-0.2 -0.03,-0.09 -0.11,-0.22 -0.32,-0.24 -0.17,-0.02 -0.97,-0.02 -1.09,-0.02 -0.03,0 -0.05,0.01 -0.05,0.05l0 0.54z"/>
   <path fill="#354B80" fill-rule="nonzero" d="M130.54 49.79c0,0.07 0.02,0.09 0.06,0.12 0.15,0.05 0.35,0.06 0.52,0.06 0.27,0 0.36,-0.02 0.48,-0.11 0.21,-0.15 0.44,-0.43 0.44,-0.97 0,-0.92 -0.63,-1.16 -1.03,-1.16 -0.17,0 -0.33,0.01 -0.4,0.02 -0.05,0.02 -0.06,0.04 -0.06,0.09l0 1.95zm-0.86 -0.51c0,-0.99 0,-1.18 -0.01,-1.38 -0.02,-0.22 -0.08,-0.29 -0.29,-0.35 -0.05,-0.02 -0.17,-0.02 -0.27,-0.02 -0.07,0 -0.12,-0.02 -0.12,-0.07 0,-0.05 0.05,-0.06 0.15,-0.06 0.35,0 0.79,0.02 0.92,0.02 0.23,0 0.85,-0.02 1.05,-0.02 0.43,0 0.92,0.04 1.29,0.28 0.19,0.13 0.48,0.46 0.48,0.9 0,0.48 -0.28,0.92 -0.94,1.45 0.6,0.74 1.08,1.33 1.48,1.74 0.38,0.38 0.62,0.41 0.72,0.43 0.07,0.02 0.11,0.02 0.16,0.02 0.05,0 0.08,0.04 0.08,0.07 0,0.05 -0.05,0.07 -0.13,0.07l-0.65 0c-0.38,0 -0.56,-0.04 -0.74,-0.13 -0.29,-0.15 -0.55,-0.45 -0.92,-0.96 -0.27,-0.35 -0.55,-0.79 -0.64,-0.89 -0.04,-0.04 -0.08,-0.05 -0.12,-0.05l-0.61 -0.02c-0.03,0 -0.05,0.02 -0.05,0.05l0 0.09c0,0.61 0.01,1.12 0.04,1.39 0.02,0.19 0.05,0.32 0.26,0.35 0.1,0.02 0.25,0.02 0.33,0.02 0.05,0 0.08,0.04 0.08,0.07 0,0.05 -0.05,0.07 -0.14,0.07 -0.39,0 -0.95,-0.02 -1.05,-0.02 -0.13,0 -0.56,0.02 -0.83,0.02 -0.08,0 -0.13,-0.02 -0.13,-0.07 0,-0.03 0.02,-0.07 0.11,-0.07 0.1,0 0.18,-0.01 0.24,-0.02 0.14,-0.03 0.18,-0.15 0.2,-0.35 0.03,-0.28 0.03,-0.79 0.03,-1.39l0 -1.15z"/>
   <path fill="#354B80" fill-rule="nonzero" d="M134.95 49.28c0,-0.99 0,-1.18 -0.01,-1.38 -0.02,-0.22 -0.08,-0.29 -0.29,-0.35 -0.05,-0.02 -0.17,-0.02 -0.27,-0.02 -0.07,0 -0.12,-0.02 -0.12,-0.07 0,-0.05 0.05,-0.06 0.15,-0.06 0.35,0 0.79,0.02 0.98,0.02 0.22,0 1.72,0.01 1.85,0 0.12,-0.01 0.23,-0.03 0.29,-0.04 0.04,-0.01 0.08,-0.03 0.11,-0.03 0.04,0 0.05,0.03 0.05,0.06 0,0.05 -0.04,0.12 -0.05,0.42 -0.01,0.07 -0.02,0.35 -0.04,0.43 -0.01,0.03 -0.02,0.11 -0.08,0.11 -0.05,0 -0.05,-0.03 -0.05,-0.08 0,-0.05 -0.01,-0.16 -0.05,-0.24 -0.05,-0.12 -0.11,-0.21 -0.45,-0.24 -0.11,-0.02 -0.92,-0.03 -1.06,-0.03 -0.03,0 -0.05,0.02 -0.05,0.06l0 1.62c0,0.04 0.01,0.07 0.05,0.07 0.15,0 1.03,0 1.18,-0.02 0.16,-0.02 0.26,-0.03 0.32,-0.1 0.05,-0.05 0.08,-0.08 0.11,-0.08 0.03,0 0.05,0.03 0.05,0.07 0,0.04 -0.02,0.15 -0.05,0.48 -0.02,0.13 -0.03,0.39 -0.03,0.44 0,0.05 -0.01,0.15 -0.07,0.15 -0.05,0 -0.06,-0.02 -0.06,-0.05 -0.01,-0.07 -0.01,-0.15 -0.02,-0.24 -0.04,-0.13 -0.12,-0.23 -0.38,-0.25 -0.12,-0.02 -0.89,-0.03 -1.06,-0.03 -0.03,0 -0.04,0.03 -0.04,0.07l0 0.52c0,0.22 -0.01,0.78 0,0.97 0.02,0.45 0.22,0.55 0.92,0.55 0.18,0 0.46,-0.01 0.64,-0.08 0.17,-0.08 0.25,-0.22 0.29,-0.48 0.02,-0.07 0.03,-0.1 0.08,-0.1 0.05,0 0.06,0.08 0.06,0.15 0,0.15 -0.05,0.59 -0.09,0.72 -0.05,0.17 -0.11,0.17 -0.36,0.17 -0.51,0 -0.92,-0.01 -1.25,-0.02 -0.33,-0.01 -0.58,-0.02 -0.79,-0.02 -0.08,0 -0.22,0.01 -0.39,0.01 -0.16,0.01 -0.33,0.02 -0.47,0.02 -0.08,0 -0.13,-0.02 -0.13,-0.07 0,-0.03 0.02,-0.07 0.11,-0.07 0.1,0 0.18,-0.01 0.24,-0.02 0.14,-0.03 0.18,-0.15 0.2,-0.35 0.03,-0.28 0.03,-0.79 0.03,-1.39l0 -1.15z"/>
   <path fill="#354B80" fill-rule="nonzero" d="M139.02 52.25c-0.11,-0.05 -0.13,-0.08 -0.13,-0.22 0,-0.35 0.03,-0.76 0.04,-0.87 0,-0.1 0.03,-0.17 0.08,-0.17 0.06,0 0.07,0.06 0.07,0.11 0,0.08 0.02,0.22 0.06,0.34 0.15,0.48 0.65,0.65 1.08,0.65 0.58,0 0.94,-0.37 0.94,-0.83 0,-0.29 -0.07,-0.57 -0.67,-0.92l-0.39 -0.23c-0.8,-0.47 -1.06,-0.91 -1.06,-1.48 0,-0.8 0.77,-1.32 1.71,-1.32 0.44,0 0.79,0.06 0.96,0.11 0.06,0.02 0.09,0.04 0.09,0.08 0,0.08 -0.02,0.27 -0.02,0.78 0,0.14 -0.03,0.21 -0.08,0.21 -0.05,0 -0.07,-0.04 -0.07,-0.11 0,-0.06 -0.03,-0.26 -0.18,-0.43 -0.1,-0.12 -0.32,-0.31 -0.75,-0.31 -0.48,0 -0.92,0.25 -0.92,0.7 0,0.29 0.11,0.52 0.72,0.86l0.28 0.15c0.89,0.49 1.17,0.99 1.17,1.59 0,0.48 -0.19,0.88 -0.68,1.22 -0.32,0.23 -0.77,0.27 -1.13,0.27 -0.39,0 -0.81,-0.04 -1.1,-0.17z"/>
   <path fill="#354B80" fill-rule="nonzero" d="M146.9 49.52c0.02,0 0.04,-0.01 0.04,-0.05l0 -0.14c0,-0.99 -0.01,-1.23 -0.02,-1.44 -0.02,-0.22 -0.08,-0.29 -0.29,-0.35 -0.05,-0.02 -0.17,-0.02 -0.26,-0.02 -0.08,0 -0.12,-0.02 -0.12,-0.07 0,-0.05 0.05,-0.06 0.15,-0.06 0.36,0 0.84,0.02 1.02,0.02 0.16,0 0.61,-0.02 0.87,-0.02 0.1,0 0.15,0.02 0.15,0.06 0,0.05 -0.05,0.07 -0.12,0.07 -0.05,0 -0.11,0.01 -0.2,0.02 -0.18,0.03 -0.23,0.12 -0.25,0.35 -0.02,0.21 -0.02,0.39 -0.02,1.38l0 1.15c0,0.6 0,1.12 0.03,1.4 0.02,0.18 0.06,0.31 0.27,0.34 0.09,0.02 0.24,0.02 0.35,0.02 0.07,0 0.11,0.04 0.11,0.07 0,0.05 -0.05,0.07 -0.14,0.07 -0.44,0 -0.88,-0.02 -1.07,-0.02 -0.15,0 -0.63,0.02 -0.89,0.02 -0.09,0 -0.15,-0.02 -0.15,-0.07 0,-0.03 0.03,-0.07 0.11,-0.07 0.11,0 0.19,-0.01 0.25,-0.02 0.14,-0.03 0.18,-0.15 0.2,-0.35 0.03,-0.28 0.03,-0.78 0.03,-1.38l0 -0.5c0,-0.02 -0.02,-0.04 -0.04,-0.04l-2.55 0c-0.02,0 -0.05,0.01 -0.05,0.04l0 0.5c0,0.6 0.01,1.1 0.04,1.38 0.02,0.18 0.06,0.31 0.26,0.34 0.09,0.02 0.25,0.02 0.35,0.02 0.08,0 0.11,0.04 0.11,0.07 0,0.05 -0.05,0.07 -0.14,0.07 -0.44,0 -0.91,-0.02 -1.1,-0.02 -0.15,0 -0.6,0.02 -0.87,0.02 -0.08,0 -0.13,-0.02 -0.13,-0.07 0,-0.03 0.02,-0.07 0.11,-0.07 0.1,0 0.18,-0.01 0.24,-0.02 0.14,-0.03 0.18,-0.15 0.2,-0.35 0.03,-0.28 0.03,-0.79 0.03,-1.39l0 -1.15c0,-0.99 0,-1.18 -0.01,-1.38 -0.02,-0.22 -0.08,-0.29 -0.29,-0.35 -0.05,-0.02 -0.17,-0.02 -0.27,-0.02 -0.07,0 -0.11,-0.02 -0.11,-0.07 0,-0.05 0.05,-0.06 0.15,-0.06 0.36,0 0.81,0.02 0.99,0.02 0.16,0 0.63,-0.02 0.9,-0.02 0.09,0 0.14,0.02 0.14,0.06 0,0.05 -0.04,0.07 -0.12,0.07 -0.05,0 -0.11,0.01 -0.19,0.02 -0.18,0.03 -0.24,0.12 -0.25,0.35 -0.02,0.21 -0.02,0.45 -0.02,1.44l0 0.14c0,0.04 0.02,0.05 0.05,0.05l2.55 0z"/>
   <path fill="#354B80" fill-rule="nonzero" d="M155.37 51.5c-0.45,-0.39 -1.18,-1.11 -1.38,-1.32 -0.2,-0.22 -0.69,-0.77 -0.82,-0.96 -0.26,0.19 -0.53,0.55 -0.53,1.17 0,0.96 0.68,1.58 1.48,1.58 0.59,0 1.1,-0.31 1.26,-0.46zm-2.41 -2.58c-0.32,-0.43 -0.39,-0.75 -0.39,-1.09 -0.01,-0.61 0.53,-1.42 1.87,-1.42 0.38,0 0.72,0.08 0.93,0.16 0.13,0.05 0.13,0.11 0.13,0.2 0,0.26 -0.06,0.87 -0.08,0.99 -0.02,0.11 -0.05,0.13 -0.09,0.13 -0.05,0 -0.05,-0.03 -0.05,-0.15 0,-0.2 -0.05,-0.45 -0.22,-0.65 -0.15,-0.18 -0.42,-0.35 -0.85,-0.35 -0.32,0 -0.82,0.22 -0.82,0.88 0,0.72 0.66,1.34 1.28,2.02 0.26,0.3 1.21,1.15 1.35,1.29 0.15,-0.22 0.37,-0.72 0.37,-1.19 0,-0.11 -0.03,-0.25 -0.15,-0.35 -0.1,-0.09 -0.26,-0.12 -0.38,-0.12 -0.05,0 -0.09,-0.02 -0.09,-0.06 0,-0.06 0.06,-0.08 0.12,-0.08 0.19,0 0.49,0.01 0.92,0.05 0.15,0.02 0.26,0.06 0.26,0.15 0,0.59 -0.32,1.31 -0.75,1.82 0.52,0.42 0.86,0.63 1.07,0.75 0.25,0.15 0.67,0.27 0.82,0.27 0.07,0 0.11,0.01 0.11,0.07 0,0.05 -0.06,0.07 -0.23,0.07l-0.59 0c-0.88,0 -1.15,-0.08 -1.82,-0.59 -0.25,0.23 -0.77,0.7 -1.82,0.7 -1.65,0 -2.14,-1.03 -2.14,-1.7 0,-0.9 0.79,-1.6 1.25,-1.82z"/>
   <path fill="#354B80" fill-rule="nonzero" d="M161.06 49.28c0,-0.99 0,-1.18 -0.01,-1.38 -0.02,-0.22 -0.08,-0.29 -0.29,-0.35 -0.05,-0.02 -0.17,-0.02 -0.27,-0.02 -0.07,0 -0.12,-0.02 -0.12,-0.07 0,-0.05 0.05,-0.06 0.15,-0.06 0.35,0 0.78,0.02 0.98,0.02 0.28,0 0.82,-0.02 1.12,-0.02 0.85,0 1.15,0.28 1.26,0.37 0.15,0.14 0.34,0.43 0.34,0.78 0,0.92 -0.74,1.59 -1.7,1.59 -0.03,0 -0.17,0 -0.2,-0.01 -0.04,0 -0.08,-0.02 -0.08,-0.07 0,-0.05 0.08,-0.08 0.22,-0.08 0.38,0 0.91,-0.39 0.91,-1.06 0,-0.22 -0.02,-0.65 -0.4,-0.97 -0.25,-0.22 -0.52,-0.25 -0.68,-0.25 -0.1,0 -0.23,0.01 -0.29,0.03 -0.04,0.02 -0.05,0.05 -0.05,0.12l0 2.59c0,0.6 0,1.12 0.03,1.4 0.02,0.18 0.06,0.31 0.26,0.34 0.1,0.02 0.25,0.02 0.35,0.02 0.08,0 0.11,0.04 0.11,0.07 0,0.05 -0.05,0.07 -0.12,0.07 -0.45,0 -0.93,-0.02 -1.11,-0.02 -0.15,0 -0.58,0.02 -0.85,0.02 -0.08,0 -0.13,-0.02 -0.13,-0.07 0,-0.03 0.02,-0.07 0.11,-0.07 0.1,0 0.18,-0.01 0.24,-0.02 0.14,-0.03 0.18,-0.15 0.2,-0.35 0.03,-0.28 0.03,-0.79 0.03,-1.39l0 -1.15z"/>
   <path fill="#354B80" fill-rule="nonzero" d="M165.36 49.28c0,-0.99 0.01,-1.18 -0.01,-1.38 -0.02,-0.23 -0.08,-0.29 -0.29,-0.35 -0.05,-0.02 -0.17,-0.02 -0.26,-0.02 -0.08,0 -0.11,-0.02 -0.11,-0.07 0,-0.05 0.05,-0.06 0.15,-0.06 0.36,0 0.82,0.02 1.02,0.02 0.17,0 0.62,-0.02 0.87,-0.02 0.1,0 0.15,0.02 0.15,0.06 0,0.05 -0.04,0.07 -0.11,0.07 -0.08,0 -0.12,0.01 -0.2,0.02 -0.18,0.03 -0.23,0.12 -0.25,0.35 -0.02,0.21 -0.02,0.39 -0.02,1.38l0 0.92c0,0.95 0.18,1.32 0.52,1.58 0.3,0.24 0.62,0.26 0.85,0.26 0.29,0 0.64,-0.08 0.91,-0.35 0.38,-0.35 0.39,-0.92 0.39,-1.59l0 -0.82c0,-0.99 -0.01,-1.18 -0.02,-1.38 -0.02,-0.22 -0.07,-0.29 -0.28,-0.35 -0.05,-0.02 -0.17,-0.02 -0.25,-0.02 -0.08,0 -0.12,-0.02 -0.12,-0.07 0,-0.05 0.05,-0.06 0.14,-0.06 0.35,0 0.8,0.02 0.81,0.02 0.08,0 0.53,-0.02 0.79,-0.02 0.09,0 0.14,0.02 0.14,0.06 0,0.05 -0.04,0.07 -0.12,0.07 -0.08,0 -0.11,0.01 -0.2,0.02 -0.18,0.03 -0.23,0.12 -0.25,0.35 -0.01,0.21 -0.02,0.39 -0.02,1.38l0 0.7c0,0.73 -0.08,1.5 -0.65,1.97 -0.48,0.4 -0.99,0.47 -1.43,0.47 -0.35,0 -1.05,-0.02 -1.55,-0.45 -0.35,-0.3 -0.61,-0.78 -0.61,-1.73l0 -0.96z"/>
   <path fill="#354B80" fill-rule="nonzero" d="M172.21 49.79c0,0.07 0.02,0.09 0.06,0.12 0.15,0.05 0.35,0.06 0.52,0.06 0.27,0 0.36,-0.02 0.48,-0.11 0.21,-0.15 0.44,-0.43 0.44,-0.97 0,-0.92 -0.63,-1.16 -1.03,-1.16 -0.17,0 -0.33,0.01 -0.4,0.02 -0.05,0.02 -0.06,0.04 -0.06,0.09l0 1.95zm-0.86 -0.51c0,-0.99 0,-1.18 -0.01,-1.38 -0.02,-0.22 -0.08,-0.29 -0.29,-0.35 -0.05,-0.02 -0.17,-0.02 -0.27,-0.02 -0.07,0 -0.11,-0.02 -0.11,-0.07 0,-0.05 0.05,-0.06 0.15,-0.06 0.35,0 0.79,0.02 0.92,0.02 0.23,0 0.85,-0.02 1.05,-0.02 0.43,0 0.92,0.04 1.29,0.28 0.19,0.13 0.48,0.46 0.48,0.9 0,0.48 -0.28,0.92 -0.94,1.45 0.6,0.74 1.08,1.33 1.48,1.74 0.38,0.38 0.62,0.41 0.72,0.43 0.07,0.02 0.11,0.02 0.16,0.02 0.05,0 0.08,0.04 0.08,0.07 0,0.05 -0.05,0.07 -0.13,0.07l-0.65 0c-0.38,0 -0.56,-0.04 -0.74,-0.13 -0.29,-0.15 -0.55,-0.45 -0.92,-0.96 -0.27,-0.35 -0.55,-0.79 -0.64,-0.89 -0.04,-0.04 -0.08,-0.05 -0.12,-0.05l-0.61 -0.02c-0.03,0 -0.05,0.02 -0.05,0.05l0 0.09c0,0.61 0.01,1.12 0.04,1.39 0.02,0.19 0.05,0.32 0.26,0.35 0.1,0.02 0.25,0.02 0.33,0.02 0.05,0 0.08,0.04 0.08,0.07 0,0.05 -0.05,0.07 -0.14,0.07 -0.39,0 -0.95,-0.02 -1.05,-0.02 -0.13,0 -0.56,0.02 -0.83,0.02 -0.08,0 -0.13,-0.02 -0.13,-0.07 0,-0.03 0.02,-0.07 0.11,-0.07 0.1,0 0.18,-0.01 0.24,-0.02 0.14,-0.03 0.18,-0.15 0.2,-0.35 0.03,-0.28 0.03,-0.79 0.03,-1.39l0 -1.15z"/>
   <path fill="#354B80" fill-rule="nonzero" d="M176.62 49.28c0,-0.99 0,-1.18 -0.01,-1.38 -0.02,-0.22 -0.08,-0.29 -0.29,-0.35 -0.05,-0.02 -0.17,-0.02 -0.27,-0.02 -0.07,0 -0.12,-0.02 -0.12,-0.07 0,-0.05 0.05,-0.06 0.15,-0.06 0.35,0 0.79,0.02 0.98,0.02 0.22,0 1.72,0.01 1.85,0 0.12,-0.01 0.23,-0.03 0.28,-0.04 0.04,-0.01 0.08,-0.03 0.11,-0.03 0.04,0 0.05,0.03 0.05,0.06 0,0.05 -0.04,0.12 -0.05,0.42 -0.01,0.07 -0.02,0.35 -0.04,0.43 -0.01,0.03 -0.02,0.11 -0.08,0.11 -0.05,0 -0.05,-0.03 -0.05,-0.08 0,-0.05 -0.01,-0.16 -0.05,-0.24 -0.05,-0.12 -0.11,-0.21 -0.45,-0.24 -0.12,-0.02 -0.92,-0.03 -1.06,-0.03 -0.03,0 -0.05,0.02 -0.05,0.06l0 1.62c0,0.04 0.01,0.07 0.05,0.07 0.15,0 1.03,0 1.19,-0.02 0.16,-0.02 0.26,-0.03 0.32,-0.1 0.05,-0.05 0.08,-0.08 0.11,-0.08 0.03,0 0.05,0.03 0.05,0.07 0,0.04 -0.02,0.15 -0.05,0.48 -0.02,0.13 -0.03,0.39 -0.03,0.44 0,0.05 -0.01,0.15 -0.07,0.15 -0.05,0 -0.06,-0.02 -0.06,-0.05 -0.01,-0.07 -0.01,-0.15 -0.02,-0.24 -0.04,-0.13 -0.12,-0.23 -0.38,-0.25 -0.12,-0.02 -0.89,-0.03 -1.06,-0.03 -0.03,0 -0.04,0.03 -0.04,0.07l0 0.52c0,0.22 -0.01,0.78 0,0.97 0.02,0.45 0.22,0.55 0.92,0.55 0.18,0 0.46,-0.01 0.64,-0.08 0.17,-0.08 0.25,-0.22 0.29,-0.48 0.02,-0.07 0.03,-0.1 0.08,-0.1 0.05,0 0.06,0.08 0.06,0.15 0,0.15 -0.05,0.59 -0.09,0.72 -0.05,0.17 -0.11,0.17 -0.36,0.17 -0.51,0 -0.92,-0.01 -1.25,-0.02 -0.33,-0.01 -0.58,-0.02 -0.79,-0.02 -0.08,0 -0.22,0.01 -0.38,0.01 -0.16,0.01 -0.33,0.02 -0.47,0.02 -0.08,0 -0.13,-0.02 -0.13,-0.07 0,-0.03 0.02,-0.07 0.11,-0.07 0.1,0 0.18,-0.01 0.24,-0.02 0.14,-0.03 0.18,-0.15 0.2,-0.35 0.03,-0.28 0.03,-0.79 0.03,-1.39l0 -1.15z"/>
   <path fill="white" fill-rule="nonzero" d="M119.68 24.35c-0.74,-0.2 -1.81,-0.44 -3.21,-0.72 -1.4,-0.29 -2.56,-0.43 -3.48,-0.43 -1.38,0 -2.84,0.2 -4.4,0.59 -1.56,0.39 -2.89,1.05 -4,1.98 -1.11,0.93 -1.67,2.13 -1.67,3.62 0.02,1.37 0.42,2.64 1.22,3.81 0.79,1.16 1.79,2.07 2.97,2.71 1.19,0.65 2.35,0.97 3.48,0.97 0.44,0 1.64,-0.26 3.59,-0.79 1.95,-0.53 3.26,-0.88 3.94,-1.06 0.68,-0.18 1.32,-0.27 1.93,-0.27 0.46,0 0.9,0.05 1.33,0.16 0.43,0.11 0.8,0.3 1.13,0.59 0.33,0.29 0.49,0.66 0.49,1.12 0,0.84 -0.53,1.54 -1.6,2.12 -1.07,0.58 -2.29,1.02 -3.67,1.31 -1.38,0.3 -2.49,0.44 -3.33,0.44 -1.18,0 -2.12,-0.12 -2.81,-0.37 -0.7,-0.25 -1.39,-0.6 -2.09,-1.07 -0.7,-0.47 -1.28,-0.81 -1.76,-1.04 -0.48,-0.23 -1.11,-0.34 -1.89,-0.34 -0.64,0 -1.21,0.16 -1.71,0.48 -0.5,0.32 -0.75,0.85 -0.75,1.58 0,1.11 0.52,1.99 1.55,2.63 1.03,0.64 2.15,1.06 3.35,1.26 1.2,0.2 2.42,0.33 3.65,0.38 0.47,0 1.08,0.65 1.83,1.96 0.74,1.31 1.47,2.35 2.17,3.12 0.7,0.77 1.74,1.15 3.1,1.15 0.95,0 1.68,-0.08 2.18,-0.24 0.5,-0.16 0.81,-0.3 0.95,-0.42l-2.48 -4.05c-0.39,0.1 -0.76,0.15 -1.11,0.15 -1.06,0 -2.19,-0.59 -3.37,-1.77 1.23,-0.08 2.52,-0.43 3.87,-1.04 1.35,-0.61 2.51,-1.46 3.48,-2.54 0.97,-1.08 1.45,-2.29 1.45,-3.61 0,-1.11 -0.34,-2.1 -1.02,-2.95 -0.68,-0.85 -1.59,-1.5 -2.73,-1.95 -1.14,-0.45 -2.34,-0.68 -3.6,-0.68 -1.34,0 -2.36,0.1 -3.06,0.31 -0.7,0.21 -1.78,0.57 -3.24,1.11 -1.47,0.53 -2.58,0.8 -3.35,0.8 -0.7,0 -1.22,-0.22 -1.56,-0.68 -0.34,-0.45 -0.5,-0.88 -0.5,-1.29 0,-0.98 0.57,-1.77 1.71,-2.37 1.14,-0.6 2.42,-1.01 3.86,-1.25 1.43,-0.24 2.67,-0.36 3.7,-0.36 1.24,0 2.75,0.2 4.52,0.61 1.77,0.41 3.13,0.89 4.08,1.45l0 -9.29 -3.12 0 0 4.15z"/>
   <polygon fill="white" fill-rule="nonzero" points="128.52,42.16 132.65,44.44 132.65,20.2 128.52,20.2 "/>
   <path fill="white" fill-rule="nonzero" d="M153.69 23.94c-1.14,-0.47 -2.19,-0.7 -3.14,-0.7 -1.13,0 -2.25,0.19 -3.36,0.58 -1.11,0.39 -2.08,0.82 -2.91,1.29 -0.84,0.47 -1.32,0.78 -1.45,0.91l0 -2.78 -4.77 0 0 19.09 4.74 2.46 0 -10.42c0,-1.57 0.47,-3.14 1.41,-4.69 0.94,-1.56 2.08,-2.83 3.43,-3.81 1.34,-0.98 2.55,-1.47 3.61,-1.47 0.87,0 1.57,0.24 2.11,0.72 0.54,0.48 0.81,0.9 0.81,1.24 0,0.84 -0.47,1.68 -1.41,2.54 -0.94,0.86 -2.1,1.36 -3.48,1.49l3.69 4.18c0.82,-0.39 1.83,-1.15 3.03,-2.29 1.2,-1.13 1.81,-2.23 1.81,-3.29 0,-1.13 -0.4,-2.14 -1.21,-3.02 -0.8,-0.88 -1.77,-1.56 -2.91,-2.03z"/>
   <path fill="white" fill-rule="nonzero" d="M95.8 34.49c1.07,-0.43 1.99,-1.07 2.75,-1.94 0.77,-0.87 1.15,-1.87 1.15,-3.02 0,-1.74 -0.76,-3.1 -2.28,-4.09 -1.52,-0.99 -3.1,-1.49 -4.72,-1.49 -1.28,0 -2.37,0.12 -3.28,0.37 -0.91,0.24 -1.82,0.62 -2.73,1.13 -0.91,0.51 -1.58,0.86 -2,1.06l0 -6.31 -0.1 -2.97c0,-2.69 -0.27,-5.15 -0.81,-7.38 -0.54,-2.24 -1.15,-4.03 -1.83,-5.39 -0.68,-1.36 -1.29,-2.39 -1.83,-3.08 -0.54,-0.7 -0.93,-1.15 -1.16,-1.36l-4.99 0c0.07,0.13 0.53,0.76 1.4,1.89 0.87,1.13 1.65,2.33 2.35,3.61 0.7,1.28 1.29,2.9 1.79,4.87 0.46,1.79 0.7,3.86 0.74,6.18l0 0 0 0.15c0,0.17 0.01,0.35 0.01,0.52l-0.01 0 0.15 2.97 0 22.19 4.23 1.89 0 -10.29c0,-0.95 0.46,-2.16 1.38,-3.64 0.92,-1.47 2.05,-2.76 3.4,-3.84 1.35,-1.09 2.63,-1.63 3.87,-1.63 1.87,0 2.81,0.66 2.81,1.97 0,1.28 -0.46,2.28 -1.37,3 -0.91,0.72 -2.1,1.08 -3.56,1.08 -0.95,0 -1.86,-0.12 -2.73,-0.37l-1.63 3.37 8.79 10.42 3.1 -2.26 -5.68 -6.93c0.78,0 1.71,-0.21 2.78,-0.64z"/>
   <path fill="white" fill-rule="nonzero" d="M175.09 36.91c-0.56,0.59 -1.36,1.2 -2.41,1.85 -1.05,0.64 -2.29,1.19 -3.72,1.63 -1.43,0.44 -2.99,0.66 -4.66,0.66 -0.9,0 -1.75,-0.13 -2.54,-0.38 -0.79,-0.25 -1.31,-0.72 -1.54,-1.41 0,-0.64 0.42,-1.45 1.25,-2.44 0.84,-0.99 1.99,-1.86 3.45,-2.61 1.47,-0.75 3.09,-1.13 4.88,-1.13 0.7,0 1.9,0.25 3.59,0.76 1.69,0.51 2.53,1.13 2.53,1.88 0,0.2 -0.28,0.59 -0.83,1.18zm4.61 -7.27c-0.11,-1.22 -0.41,-2.32 -0.91,-3.3 -0.5,-0.98 -1.31,-1.74 -2.44,-2.29 -1.13,-0.54 -2.68,-0.81 -4.64,-0.81 -0.83,0.01 -1.62,0.08 -2.36,0.19 -0.06,0.01 -0.13,0.02 -0.19,0.03 -3.48,0.56 -5.88,2.07 -7.15,3.07l0 0c-0.02,0.02 -0.06,0.07 -0.14,0.15 -0.07,0.08 -0.22,0.21 -0.43,0.39 -0.21,0.18 -0.38,0.32 -0.49,0.41l0 1.81c0.77,-0.26 1.72,-0.62 2.86,-1.08 1.14,-0.46 2.2,-0.8 3.19,-1.02 0.99,-0.22 2.35,-0.36 4.07,-0.43 1.33,0 2.31,0.16 2.95,0.49 0.64,0.32 1.28,0.91 1.92,1.75l0 2.27c-0.54,-0.41 -1.33,-0.79 -2.36,-1.13 -1.03,-0.34 -2.12,-0.51 -3.27,-0.51 -2.11,0 -4.06,0.41 -5.85,1.24 -1.78,0.83 -3.21,1.87 -4.27,3.12 -1.07,1.25 -1.6,2.45 -1.6,3.6 0,1.23 0.42,2.33 1.26,3.3 0.84,0.97 1.94,1.72 3.3,2.25 1.36,0.52 2.75,0.79 4.18,0.79 1.49,0 2.78,-0.14 3.86,-0.42 1.08,-0.28 1.96,-0.6 2.63,-0.97 0.67,-0.37 1.28,-0.71 1.82,-1.02 0.2,0.13 0.29,0.47 0.29,1.01 0.28,0.16 0.78,0.42 1.5,0.77 0.72,0.35 1.53,0.71 2.43,1.07l0 -9.7c0,-2.13 -0.05,-3.8 -0.16,-5.02z"/>
  </g>
 </g>
</svg>
